<svg width="120" height="35" viewBox="0 0 120 35" fill="none" xmlns="http://www.w3.org/2000/svg">
<path d="M41.6741 13.3281C40.3438 13.3281 39.2578 14.402 39.2578 15.7174C39.2578 16.3617 39.5157 16.9657 39.9637 17.4087C40.4252 17.8516 41.0225 18.1066 41.6741 18.1066C42.3257 18.1066 42.9365 17.8516 43.3845 17.4087C43.846 16.9523 44.0904 16.3617 44.0904 15.7174C44.0904 15.0865 43.846 14.4825 43.3845 14.0261C42.9365 13.5697 42.3257 13.3281 41.6741 13.3281Z" fill="white"/>
<path d="M29.483 15.7178C28.2884 15.7178 27.3789 16.6439 27.3789 17.8654V30.1607C27.3789 30.7648 27.5961 31.3151 28.0033 31.7178C28.3834 32.0936 28.9128 32.3084 29.483 32.3084C30.0531 32.3084 30.5689 32.0936 30.9626 31.7178C31.3699 31.3151 31.587 30.7648 31.587 30.1607V17.8654C31.587 17.2614 31.3563 16.7111 30.9626 16.3084C30.5825 15.9191 30.0531 15.7178 29.483 15.7178Z" fill="white"/>
<path d="M35.5787 15.7178C34.3705 15.7178 33.4746 16.6439 33.4746 17.8654V30.1607C33.4746 30.7648 33.7054 31.3151 34.099 31.7178C34.4927 32.107 35.0085 32.3084 35.5787 32.3084C36.1488 32.3084 36.6647 32.0936 37.0583 31.7178C37.452 31.3151 37.6828 30.7648 37.6828 30.1607V17.8654C37.6828 17.2614 37.4656 16.7111 37.0583 16.3084C36.6647 15.9191 36.1488 15.7178 35.5787 15.7178Z" fill="white"/>
<path d="M41.6744 20.0664C40.4662 20.0664 39.5703 20.9792 39.5703 22.2141V30.1604C39.5703 30.7644 39.7875 31.3147 40.1947 31.7174C40.5748 32.1067 41.1042 32.308 41.6744 32.308C42.2445 32.308 42.7739 32.0933 43.154 31.7174C43.5613 31.3147 43.7785 30.7644 43.7785 30.1604V22.2141C43.7785 21.61 43.5613 21.0597 43.154 20.657C42.7739 20.2677 42.2445 20.0664 41.6744 20.0664Z" fill="white"/>
<path d="M19.7372 20.0537C16.2349 20.0537 13.3978 22.859 13.3978 26.3221C13.3978 28 14.063 29.5705 15.2575 30.7517C16.4521 31.9329 18.0539 32.5906 19.7372 32.5906C21.434 32.5906 23.0222 31.9463 24.2168 30.7517C25.4114 29.5705 26.0765 27.9866 26.0765 26.3221C26.0765 24.6443 25.4114 23.0738 24.2168 21.8926C23.0222 20.698 21.434 20.0537 19.7372 20.0537ZM19.7507 28.5906C19.1399 28.5906 18.5562 28.349 18.1218 27.9194C17.6874 27.4899 17.4566 26.9262 17.4566 26.3087C17.4566 25.7047 17.701 25.1409 18.1218 24.698C18.5562 24.2819 19.1263 24.0403 19.7507 24.0403C20.3616 24.0403 20.9317 24.2819 21.3661 24.698C21.8005 25.1275 22.0449 25.7047 22.0449 26.3087C22.0313 27.5705 21.0132 28.5906 19.7507 28.5906ZM51.9363 20.3221C51.2711 20.3221 50.5516 20.4832 49.9951 20.7114V16.9262C49.9951 15.5839 49.072 14.6309 47.796 14.6309C46.5743 14.6309 45.6512 15.557 45.6512 16.8188L45.6648 26.3758C45.6648 30.4966 48.4068 32.5772 51.9363 32.5772C55.3978 32.5772 58.2077 29.7852 58.2077 26.3758C58.2213 22.9396 55.4928 20.3221 51.9363 20.3221ZM51.9498 28.6577C50.6738 28.6577 49.6286 27.6376 49.6286 26.3758C49.6286 25.1141 50.6738 24.0805 51.9498 24.0805C53.2259 24.0805 54.2711 25.1007 54.2711 26.3624C54.2711 27.6241 53.2259 28.6577 51.9498 28.6577ZM12.1489 16.8188C12.1489 16.8188 12.1625 26.6174 12.1625 26.6309C12.1625 30.3221 9.55617 32.5906 6.09463 32.5906C3.12178 32.5906 0.963412 30.9933 0.0946341 28.6846C-0.0139632 28.349 -0.0546875 28.0671 -0.0546875 27.7986C-0.0546875 26.6711 0.773367 25.8792 1.90006 25.8792C4.2892 25.8792 3.74622 28.6309 6.06748 28.6309C7.20776 28.6309 7.90006 27.7852 7.90006 26.5772L7.88649 16.7919C7.88649 15.5705 8.76884 14.6443 10.0177 14.6443C11.3073 14.6309 12.1489 15.557 12.1489 16.8188Z" fill="white"/>
<path d="M70.9671 25.9329C70.9671 24.3087 70.4241 22.8054 69.3381 21.7181C68.2657 20.6443 66.7861 20.0537 65.1571 20.0537C61.7092 20.0671 59.1707 22.6846 59.1164 26.2014C59.1028 26.8591 59.2114 27.4631 59.2793 27.7853C59.3472 28.1342 59.673 28.9396 59.673 28.9396C60.2702 30.2282 61.1662 31.2081 62.5508 31.9195C63.9625 32.6309 65.9173 32.7383 67.3969 32.4161C68.3472 32.2014 69.0938 31.7987 69.4196 31.5436C70.1526 30.9933 70.3698 30.2685 70.2612 29.6644C70.139 28.9665 69.5689 28.5638 68.8359 28.5638C68.6322 28.5638 68.3743 28.5906 68.1707 28.6443C67.6006 28.792 67.0983 29.0336 66.0802 29.0873C64.8721 29.141 64.1933 28.792 63.7997 28.4832C63.406 28.1611 63.2838 27.8792 63.2431 27.7047H68.4015C69.3788 27.6644 70.9671 27.6108 70.9671 25.9329ZM65.2114 23.2349C66.2431 23.2349 67.0983 23.8792 67.2748 24.9933H63.1345C63.2567 23.8792 64.1662 23.2349 65.2114 23.2349Z" fill="white"/>
<path d="M83.7013 25.9329C83.7013 24.3087 83.1583 22.8054 82.0724 21.7181C81 20.6443 79.5203 20.0537 77.8914 20.0537C74.4298 20.0671 71.8914 22.6846 71.8507 26.2014C71.8371 26.8591 71.9593 27.4631 72.0136 27.7718C72.0814 28.1208 72.4072 28.9262 72.4072 28.9262C73.0045 30.2148 73.9004 31.1947 75.285 31.9061C76.6968 32.6175 78.6516 32.7248 80.1312 32.4027C81.0814 32.1879 81.828 31.7853 82.1674 31.5302C82.9004 30.9799 83.1176 30.2551 83.009 29.651C82.8869 28.953 82.3167 28.5504 81.5837 28.5504C81.3801 28.5504 81.1357 28.5772 80.9185 28.6309C80.3484 28.7785 79.8461 29.0202 78.828 29.0738C77.6335 29.1275 76.9412 28.7785 76.5475 28.4698C76.1538 28.1477 76.0181 27.8658 75.9909 27.6913H81.1493C82.1267 27.6645 83.7013 27.6108 83.7013 25.9329ZM77.9593 23.2349C79.0045 23.2349 79.8597 23.8792 80.0226 24.9933H75.8823C76.0045 23.8792 76.914 23.2349 77.9593 23.2349Z" fill="white"/>
<path d="M85.3981 19.6367C84.6243 19.6367 83.9863 20.2542 83.9863 21.0193C83.9863 21.7978 84.6243 22.4152 85.3981 22.4152C86.1718 22.4152 86.8099 21.7978 86.8099 21.0193C86.7963 20.2542 86.1718 19.6367 85.3981 19.6367ZM85.3981 22.2139C84.7329 22.2139 84.2035 21.6904 84.2035 21.0327C84.2035 20.3884 84.7329 19.8515 85.3981 19.8515C86.0632 19.8515 86.5927 20.375 86.5927 21.0327C86.5791 21.6904 86.0497 22.2139 85.3981 22.2139Z" fill="white"/>
<path d="M84.8418 20.3213H85.5205C85.6699 20.3213 85.792 20.3616 85.8735 20.4287C85.9549 20.4958 85.9956 20.5897 85.9956 20.7105C85.9956 20.7777 85.9821 20.8314 85.9685 20.8716C85.9549 20.9119 85.9278 20.9522 85.9006 20.979C85.8735 21.0059 85.8463 21.0193 85.8192 21.0327C85.792 21.0461 85.7784 21.0461 85.7649 21.0595C85.7784 21.0595 85.8056 21.073 85.8327 21.0864C85.8599 21.0998 85.887 21.1132 85.9006 21.1401C85.9278 21.1669 85.9413 21.1938 85.9549 21.234C85.9685 21.2743 85.9821 21.3146 85.9821 21.3683C85.9821 21.4488 85.9821 21.5293 86.0092 21.5965C86.0228 21.6636 86.0364 21.7173 86.0635 21.7441H85.792C85.7784 21.7173 85.7649 21.677 85.7513 21.6501C85.7513 21.6099 85.7513 21.583 85.7513 21.5428C85.7513 21.4756 85.7513 21.422 85.7377 21.3817C85.7241 21.3414 85.7106 21.3012 85.697 21.2609C85.6698 21.234 85.6427 21.2072 85.6156 21.1938C85.5748 21.1803 85.5341 21.1669 85.4798 21.1669H85.1133V21.7441H84.8418V20.3213ZM85.0861 20.9656H85.4934C85.5748 20.9656 85.6291 20.9522 85.6698 20.9119C85.7106 20.8716 85.7377 20.8179 85.7377 20.7374C85.7377 20.6971 85.7241 20.6569 85.7241 20.63C85.7106 20.6032 85.697 20.5763 85.6698 20.5629C85.6427 20.5495 85.6156 20.5361 85.5884 20.5361C85.5613 20.5361 85.5341 20.5226 85.4934 20.5226H85.0861V20.9656Z" fill="white"/>
<path fill-rule="evenodd" clip-rule="evenodd" d="M99.6506 24.9522C99.6506 24.9522 97.9537 24.5495 96.6506 24.8985C95.3474 25.2475 94.0849 26.5093 94.2478 28.2676C94.4243 30.0395 96.0261 33.9455 106.451 34.0126C106.451 34.0126 109.737 35.2744 111.868 34.1871C113.999 33.0999 114.515 31.516 114.515 31.516C114.515 31.516 118.845 29.0059 119.823 24.3348C119.823 24.3348 119.877 18.7106 115.587 20.724C115.587 20.724 116.252 14.0797 110.035 14.026L105.827 11.1267L104.931 8.40187C104.931 8.40187 108.121 7.24751 107.782 3.83811C107.442 0.415295 102.854 0.697174 101.022 2.21395C101.022 2.21395 98.999 2.6569 96.5963 7.35489C96.5963 7.35489 91.7773 7.5965 90.3926 10.8985C89.008 14.2005 93.9763 15.6636 95.8768 14.6837L97.0714 15.4086C97.0714 15.4086 97.4515 22.6032 99.6506 24.9522Z" fill="white"/>
<path fill-rule="evenodd" clip-rule="evenodd" d="M105.502 8.69755C105.706 9.36869 105.882 10.0667 106.099 10.711C106.384 10.6976 106.629 10.7378 106.914 10.7244C106.955 9.77138 107.131 8.92574 107.552 8.16064C107.742 7.82507 107.959 7.51634 108.231 7.22104C108.489 6.95259 108.855 6.65728 109.194 6.59017C109.642 6.49621 110.036 6.71098 110.131 7.03312C110.24 7.43581 110.023 7.86534 109.873 8.14722C109.371 9.08681 108.529 9.62373 108.326 10.8049C108.394 10.872 108.489 10.8452 108.57 10.8586C111.081 11.2345 113.023 12.3351 114.475 13.7714C115.222 14.5096 115.873 15.409 116.362 16.4291C116.851 17.4627 117.204 18.6573 117.244 20.0667C118.9 20.1875 119.62 21.1942 119.932 22.5633C120.285 24.0935 119.823 25.6908 119.253 26.8184C118.113 29.06 116.28 30.8452 114.353 32.2814C114.285 32.3351 114.176 32.5633 114.108 32.6573C113.348 33.8519 112.14 34.6439 110.375 34.872C109.575 34.9794 108.638 34.8989 107.946 34.6975C107.864 34.6707 107.81 34.6439 107.742 34.6304C107.362 34.5499 106.927 34.5499 106.52 34.5096C104.565 34.3217 102.556 34.1606 100.751 33.7982C98.4297 33.3284 96.2714 32.4694 94.9818 30.9257C94.3302 30.1338 93.8279 29.1271 93.8279 27.7848C93.8279 26.4425 94.4931 25.6774 95.3483 25.0063C94.7374 23.57 94.4116 21.664 94.7239 19.7848C94.9411 18.5096 95.3619 17.3821 95.9184 16.4023C96.0406 16.1875 96.1764 15.9325 96.3528 15.7043C96.4071 15.6237 96.5293 15.5163 96.5293 15.5029C96.5293 15.4627 96.2578 15.1808 96.2171 15.1405C96.0813 14.9929 95.9863 14.872 95.8913 14.8049C95.2804 15.1673 94.4931 15.3553 93.665 15.315C92.8641 15.2882 92.0768 15.0063 91.561 14.6976C91.0316 14.3754 90.5429 13.8922 90.2714 13.2747C89.9999 12.6707 89.837 11.8251 90.0406 10.966C90.38 9.6103 91.5338 8.75124 92.6605 8.14722C93.8551 7.50292 95.2261 7.07339 96.7872 6.83178C97.6288 4.46936 99.2171 2.65728 101.43 1.55661C102.204 1.18077 103.045 0.845203 104.036 0.791512C105.312 0.710975 106.208 1.11366 106.887 1.67742C107.565 2.2546 108.081 3.03312 108.231 4.05326C108.407 5.23446 108.013 6.21433 107.511 6.93916C106.968 7.69084 106.262 8.20091 105.502 8.69755ZM106.9 6.8452C107.335 6.32171 107.701 5.65057 107.742 4.83178C107.823 3.59688 107.253 2.71098 106.642 2.13379C106.099 1.62373 105.271 1.23446 104.172 1.30158C103.059 1.36869 102.081 1.77138 101.253 2.22775C100.425 2.68413 99.7329 3.23447 99.1356 3.87876C98.0768 5.0197 97.2623 6.45594 96.7329 8.06668C96.665 8.28144 96.6243 8.61701 96.3528 8.63044C96.2442 8.4291 96.3528 8.18749 96.4071 7.98614C96.4614 7.77138 96.5429 7.55661 96.5972 7.36869C94.3845 7.85191 92.2533 8.46936 91.0723 9.99956C90.665 10.5231 90.3664 11.1673 90.4343 12.0801C90.5157 13.2345 91.2352 14.0398 92.1447 14.4694C93.027 14.8855 94.5745 15.06 95.4976 14.4828C95.1718 14.1472 94.8053 13.8385 94.4524 13.5298C94.1809 13.3016 93.8958 13.0734 93.6243 12.8586C93.5293 12.7915 93.38 12.7378 93.38 12.5902C93.7736 12.6439 94.1266 12.8452 94.4388 13.0197C95.389 13.57 96.1085 14.3351 96.8551 15.0734C97.8868 13.758 99.2714 12.7915 100.86 12.0398C100.602 11.5566 100.262 10.8452 100.167 10.0398C100.032 8.92574 100.235 7.57004 100.995 7.26131C101.457 7.07339 101.851 7.28816 102.013 7.58346C102.529 8.53648 101.837 10.4157 102.312 11.4627C103.262 11.1002 104.348 10.8586 105.57 10.7647C105.353 10.0533 105.122 9.26131 104.946 8.44252C104.81 7.79822 104.62 6.89889 104.742 6.13379C104.756 6.05326 104.728 5.89218 104.864 5.87876C104.986 6.03983 104.973 6.2546 105 6.44252C105.108 7.03312 105.271 7.6103 105.38 8.18749C105.95 7.83849 106.466 7.38212 106.9 6.8452ZM104.389 16.1069C103.724 15.7982 102.869 15.6371 102.041 15.7714C101.253 15.8922 100.642 16.2143 100.099 16.6304C99.027 17.4627 98.4297 18.7378 98.3619 20.4694C98.3347 21.3553 98.5112 22.2814 98.7284 22.9929C98.837 23.3553 98.9456 23.6908 99.0949 24.013C99.2442 24.3486 99.5293 24.6439 99.665 24.966C98.6469 24.7915 97.561 24.6707 96.665 24.9123C95.8098 25.1539 95.1175 25.6506 94.7103 26.3351C94.4931 26.711 94.3438 27.1539 94.3302 27.6371C94.2759 29.2345 95.0497 30.3888 95.8641 31.1405C97.0451 32.2143 98.6198 32.8452 100.493 33.2613C102.339 33.664 104.403 33.8922 106.466 34.0398C106.412 33.9593 106.276 33.8788 106.167 33.7848C106.059 33.6908 105.909 33.5969 105.937 33.4492C106.14 33.3821 106.344 33.5298 106.52 33.5969C107.457 33.9996 108.475 34.4291 109.778 34.4157C111.339 34.4022 112.466 33.758 113.253 32.9794C113.742 32.4962 114.041 31.8653 114.312 31.1808C114.339 31.1002 114.366 30.966 114.461 30.9257C114.57 31.0331 114.489 31.409 114.516 31.5432C114.516 31.5298 114.529 31.5298 114.529 31.5029C115.48 30.8049 116.375 29.9727 117.176 29.0465C117.95 28.1338 118.67 27.1137 119.131 25.9056C119.362 25.2747 119.525 24.5499 119.538 23.7848C119.552 23.0063 119.389 22.268 119.09 21.6908C118.805 21.1271 118.317 20.711 117.692 20.5365C117.136 20.3754 116.511 20.4291 116.036 20.5902C115.873 20.6439 115.751 20.7378 115.588 20.7647C115.656 17.9996 114.584 16.1069 112.955 14.8989C112.412 14.4962 111.611 14.1472 110.728 14.1472C109.724 14.1472 108.882 14.5365 108.353 15.1539" fill="#222221"/>
<path fill-rule="evenodd" clip-rule="evenodd" d="M114.706 20.8051C114.706 20.8722 114.801 20.7782 114.855 20.8051C115.181 20.993 114.692 21.1675 114.488 21.2614C113.239 21.9192 111.801 22.5366 110.633 23.1943C110.375 22.993 110.199 22.6842 110.022 22.3889C109.52 21.5299 109.126 20.4426 108.95 19.248C108.678 17.4091 109.303 15.9057 110.972 15.7849C111.651 15.7312 112.235 16.0131 112.669 16.3353C113.077 16.6306 113.416 17.0064 113.701 17.4628C114.298 18.3755 114.665 19.4762 114.706 20.8051ZM111.733 19.946C112.113 19.691 112.506 19.4359 112.887 19.1943C113.212 19.7983 113.511 20.4292 113.525 21.342C113.823 21.248 114.081 21.1004 114.353 20.9796C114.285 19.2212 113.647 17.7983 112.656 16.8453C112.33 16.5232 111.882 16.2279 111.366 16.1742C109.371 15.9863 108.991 18.0936 109.466 19.7983C109.52 18.8185 110.267 18.04 111.38 18.1473C111.76 18.1876 112.058 18.3755 112.316 18.5903C112.126 19.0332 111.896 19.5165 111.733 19.946Z" fill="#222221"/>
<path fill-rule="evenodd" clip-rule="evenodd" d="M106.453 24.375C104.675 24.3079 102.802 24.469 101.227 24.7106C101.051 24.7374 100.67 24.8448 100.657 24.63C100.643 24.4555 100.82 24.469 100.956 24.4018C100.385 23.2743 99.7609 21.8649 100.019 20.2005C100.141 19.4622 100.399 18.8851 100.847 18.4018C101.308 17.9052 102.001 17.4354 102.951 17.5025C103.684 17.5562 104.308 17.9186 104.784 18.3213C106.141 19.5025 106.765 21.8784 106.453 24.375ZM104.526 18.6703C104.078 18.281 103.48 17.8918 102.679 17.9589C100.996 18.0797 100.019 19.9992 100.494 21.9052C100.657 21.0059 101.254 20.0931 102.272 20.0126C102.707 19.9723 103.005 20.0797 103.277 20.2005C103.453 20.281 103.657 20.375 103.779 20.5227C103.562 21.0461 103.345 21.5562 103.127 22.0797C103.589 21.8381 103.969 21.5294 104.444 21.3012C104.865 21.932 105.001 22.9924 104.865 24.026C105.299 24.0394 105.679 23.9992 106.127 24.0126C106.222 21.7307 105.747 19.7441 104.526 18.6703Z" fill="#222221"/>
<path fill-rule="evenodd" clip-rule="evenodd" d="M110.349 24.5098H110.39C110.661 24.6574 110.851 25.1004 110.716 25.4628C110.539 25.946 109.86 26.2279 109.209 26.201C108.598 26.1742 107.933 25.8923 107.811 25.342C107.987 25.3822 108.15 25.5433 108.381 25.6104C109.1 25.8386 110.227 25.6641 110.43 25.0869C110.525 24.8856 110.444 24.6843 110.349 24.5098Z" fill="#222221"/>
<path fill-rule="evenodd" clip-rule="evenodd" d="M112.357 30.2139C112.099 31.14 111.271 31.7709 110.117 31.838C109.371 31.8783 108.692 31.6635 108.258 31.328C108.135 31.234 108 31.1132 107.945 30.9655C108.638 31.234 109.194 31.5025 110.131 31.4488C111.095 31.3817 111.801 30.8447 112.276 30.2676C112.289 30.2541 112.303 30.2139 112.33 30.2139H112.357Z" fill="#222221"/>
<path fill-rule="evenodd" clip-rule="evenodd" d="M112.331 27.6504C112.331 27.6504 111.992 29.5833 111.408 29.9323C110.838 30.2678 109.277 30.8182 107.295 29.4088C107.295 29.4088 107.499 28.4423 112.331 27.6504Z" fill="#DA001C"/>
<path fill-rule="evenodd" clip-rule="evenodd" d="M115.711 23.9194C115.711 23.906 115.711 23.8925 115.697 23.906C115.304 24.0804 114.801 24.2281 114.258 24.2013C114.096 24.1878 113.933 24.1207 113.756 24.1878C113.783 24.51 114.123 24.51 114.367 24.6174C113.973 25.4362 113.308 26.067 112.548 26.5771C111.788 27.0872 110.905 27.4898 109.901 27.7315C108.381 28.1207 106.304 28.1073 104.688 27.8657C104.132 27.7851 103.589 27.7046 103.154 27.4898C103.182 27.4093 103.263 27.3153 103.29 27.1945C103.317 27.1006 103.372 26.9395 103.249 26.8724C103.086 26.8455 103.032 27.0335 102.951 27.114C102.625 27.4764 102.191 27.718 101.634 27.8254C101.512 27.8523 101.363 27.8523 101.254 27.9462C101.308 28.067 101.485 28.0536 101.593 28.067C101.743 28.0804 101.919 28.067 102.055 28.0536C102.353 28.0268 102.611 27.9059 102.842 27.9059C102.991 27.9059 103.182 27.9731 103.358 28.0268C103.534 28.0804 103.711 28.1341 103.86 28.1744C104.865 28.5234 105.774 28.859 106.616 29.3019C107.715 29.8657 108.801 30.859 110.444 30.5368C111.842 30.2549 112.317 28.9261 112.847 27.7583C113.227 26.9127 113.729 26.0402 114.258 25.3019C114.435 25.0469 114.625 24.7382 114.842 24.5905C115.059 24.4429 115.372 24.3086 115.562 24.1476C115.657 24.0939 115.833 23.9865 115.711 23.9194ZM110.227 30.1341C108.761 30.4429 107.553 29.3825 107.512 29.2885C107.512 29.2885 109.249 28.2415 110.471 29.2214C110.471 29.2214 110.58 29.0066 110.172 28.8053C110.172 28.8053 110.838 27.9596 111.991 28.6174C112.005 28.6174 111.693 29.8254 110.227 30.1341Z" fill="#222221"/>
<path fill-rule="evenodd" clip-rule="evenodd" d="M99.5698 24.7509C99.5698 24.7509 97.5608 23.9321 95.7418 24.8448C95.7418 24.8448 93.6241 19.6905 97.045 15.6368C97.045 15.6368 98.5246 13.5965 100.968 12.3213L101.823 13.3952C101.823 13.3952 102.149 13.6099 102.054 13.2609C102.054 13.2609 101.878 12.9254 101.742 12.7509C101.606 12.5764 100.887 11.5697 100.71 10.5629C100.534 9.55623 100.52 8.46898 100.751 8.01261C100.982 7.55623 101.362 7.5965 101.538 7.71731C101.715 7.85153 101.932 8.10657 101.796 9.11328C101.66 10.12 101.701 11.0999 101.945 11.6905C102.176 12.2811 102.611 12.7777 102.746 12.8717C102.882 12.9656 103.031 12.9254 102.801 12.5898C102.583 12.2542 102.421 11.9052 102.393 11.7844C102.393 11.7844 104.307 11.0462 106.859 11.0999L106.9 11.8784C106.9 11.8784 106.927 12.0797 107.063 12.0529C107.199 12.026 107.253 11.8918 107.253 11.4891C107.253 11.0864 107.226 9.74415 107.579 8.88509C107.932 8.02603 108.638 7.01932 109.357 6.95221C110.077 6.88509 109.629 7.69046 109.534 7.85153C109.452 8.01261 108.57 9.08643 108.312 9.66361C108.04 10.2274 107.905 10.8448 107.932 11.9052C107.932 11.9052 107.959 12.1871 108.135 12.0931C108.312 11.9992 108.244 11.2341 108.244 11.2341C108.244 11.2341 112.737 11.516 115.303 15.3683C115.303 15.3683 116.783 17.3683 116.796 20.0395C116.796 20.0395 116.009 20.12 115.602 20.5227C115.602 20.5227 115.547 17.3817 113.633 15.6368C111.719 13.9052 110.402 13.9858 109.045 14.6435C109.045 14.6435 107.199 15.6233 107.362 18.8717C107.362 18.8717 105.176 14.8582 101.389 16.0663C101.389 16.0663 99.3527 16.724 98.7554 18.8448C98.1309 20.9791 98.7282 23.0596 99.5698 24.7509Z" fill="#DA001C"/>
</svg>
